<?xml version="1.0" encoding="UTF-8"?>
<svg version="1.1" xmlns="http://www.w3.org/2000/svg" width="180" height="180">
<path d="M0 0 C7.20760468 4.31730683 12.18561675 10.7949623 14.375 18.9375 C15.51499702 28.31339387 14.25776121 35.43282588 8.83203125 43.125 C2.62959661 50.84610857 -4.69386638 53.19592943 -14.125 55.1875 C-21.02407198 56.77539185 -27.29990555 58.80188523 -33.625 62 C-34.27662109 62.32838867 -34.92824219 62.65677734 -35.59960938 62.99511719 C-39.18474177 64.90198091 -41.82524258 67.02756694 -44.625 69.9375 C-45.285 69.9375 -45.945 69.9375 -46.625 69.9375 C-47.95703125 68.29296875 -47.95703125 68.29296875 -49.4375 66.125 C-51.82480664 62.81092568 -53.85906229 60.70970598 -57.625 58.9375 C-57.02849972 55.69935564 -55.99483257 53.92884962 -53.875 51.4375 C-47.89359686 43.62884244 -45.46654073 34.64894997 -43.125 25.25 C-40.61650531 15.27438096 -37.73432451 6.69626837 -28.625 0.9375 C-19.88049782 -3.47166998 -9.03438071 -4.15389583 0 0 Z " fill="#FC0373" transform="translate(103.625,2.0625)"/>
<path d="M0 0 C9.34317437 5.99874263 13.47933015 12.68040349 15.8359375 23.42919922 C16.01382813 24.26080566 16.19171875 25.09241211 16.375 25.94921875 C18.72067558 36.05093787 21.91507394 45.5795514 28.78125 53.58203125 C31.0625 56.32421875 31.0625 56.32421875 31.0625 58.32421875 C29.41796875 59.65625 29.41796875 59.65625 27.25 61.13671875 C23.93592568 63.52402539 21.83470598 65.55828104 20.0625 69.32421875 C16.82101799 68.7257913 15.0112578 67.67868533 12.5 65.57421875 C4.68788567 59.61196756 -3.55139002 57.07744919 -13 54.88671875 C-23.47011958 52.42111845 -31.39502385 49.42965723 -37.78125 40.3515625 C-41.86635393 33.1888296 -41.92649454 25.36385265 -40.9375 17.32421875 C-38.63627285 9.28019706 -33.86180927 4.41398143 -26.9453125 0.07421875 C-18.58964604 -4.33316576 -8.37887571 -4.38966834 0 0 Z " fill="#FC0264" transform="translate(40.9375,64.67578125)"/>
<path d="M0 0 C3.24148201 0.59842745 5.0512422 1.64553342 7.5625 3.75 C16.05765771 10.23355388 25.34525758 12.84781811 35.65527344 15.03735352 C44.11632479 16.93750488 51.06507307 20.25853703 56.7109375 26.9609375 C61.76587354 34.95692723 61.95387076 42.7974183 61 52 C58.68223451 60.04522154 53.93213752 64.90532548 47.0078125 69.25 C39.97906596 72.9574707 32.10279899 73.32063251 24.44921875 71.33984375 C16.5035857 68.16982435 10.57044526 62.94064709 6.90405273 55.24804688 C5.35602712 51.39867614 4.55315532 47.42178179 3.6875 43.375 C1.34182442 33.27328088 -1.85257394 23.74466735 -8.71875 15.7421875 C-11 13 -11 13 -11 11 C-9.35546875 9.66796875 -9.35546875 9.66796875 -7.1875 8.1875 C-3.87342568 5.80019336 -1.77220598 3.76593771 0 0 Z " fill="#FC0266" transform="translate(119,46)"/>
<path d="M0 0 C1.33203125 1.64453125 1.33203125 1.64453125 2.8125 3.8125 C5.19980664 7.12657432 7.23406229 9.22779402 11 11 C10.40157255 14.24148201 9.35446658 16.0512422 7.25 18.5625 C1.28774881 26.37461433 -1.24676956 34.61389002 -3.4375 44.0625 C-5.9031003 54.53261958 -8.89456152 62.45752385 -17.97265625 68.84375 C-25.13538915 72.92885393 -32.9603661 72.98899454 -41 72 C-49.04402169 69.69877285 -53.91023732 64.92430927 -58.25 58.0078125 C-61.9574707 50.97906596 -62.32063251 43.10279899 -60.33984375 35.44921875 C-57.16982435 27.5035857 -51.94064709 21.57044526 -44.24804688 17.90405273 C-40.39867614 16.35602712 -36.42178179 15.55315532 -32.375 14.6875 C-22.27328088 12.34182442 -12.74466735 9.14742606 -4.7421875 2.28125 C-2 0 -2 0 0 0 Z " fill="#FC0057" transform="translate(123,108)"/>
</svg>
